<svg xmlns="http://www.w3.org/2000/svg" width="836" height="1560" viewBox="0 0 836 1560">
<title>List copy boundaries on a narrow screen</title><desc>Three stacked panels show when list names, outer lists, and task records refer to the same or different objects.</desc>
<defs><marker id="arrow" markerWidth="18" markerHeight="18" refX="0" refY="9" orient="auto" markerUnits="userSpaceOnUse" viewBox="0 0 18 18"><path d="M0 0 L18 9 L0 18 Z" fill="#8FE4AD"/></marker></defs><rect width="836" height="1560" fill="#111412"/><g font-family="Manrope, Segoe UI, sans-serif" fill="#F5F2EB">
<g><rect x="40" y="32" width="756" height="468" rx="24" fill="#191D1A" stroke="#354039" stroke-width="2"/><text x="76" y="88" font-size="32" font-weight="700">ALIAS</text>
<rect x="116" y="112" width="210" height="64" rx="16" fill="#111412" stroke="#354039" stroke-width="2"/><text x="221" y="154" text-anchor="middle" font-family="Consolas, monospace" font-size="27">tasks</text><rect x="510" y="112" width="210" height="64" rx="16" fill="#111412" stroke="#354039" stroke-width="2"/><text x="615" y="154" text-anchor="middle" font-family="Consolas, monospace" font-size="27">alias</text><path d="M221 176 L269.7 206.5" fill="none" stroke="#8FE4AD" stroke-width="5" marker-end="url(#arrow)"/><path d="M615 176 L566.3 206.5" fill="none" stroke="#8FE4AD" stroke-width="5" marker-end="url(#arrow)"/>
<rect x="170" y="220" width="496" height="106" rx="18" fill="#111412" stroke="#354039" stroke-width="2"/><text x="418" y="260" text-anchor="middle" font-size="22" fill="#B8B4AA">LIST</text><rect x="208" y="270" width="420" height="44" rx="12" fill="#191D1A" stroke="#354039" stroke-width="2"/><text x="418" y="301" text-anchor="middle" font-family="Consolas, monospace" font-size="24">item 0</text><path d="M418 314 L418 348" fill="none" stroke="#8FE4AD" stroke-width="5" marker-end="url(#arrow)"/>
<rect x="245" y="370" width="346" height="72" rx="16" fill="#191D1A" stroke="#354039" stroke-width="2"/><text x="418" y="400" text-anchor="middle" font-size="21" fill="#B8B4AA">TASK RECORD · id=10</text><text x="418" y="430" text-anchor="middle" font-size="22">same list · same record</text></g>
<g><rect x="40" y="546" width="756" height="468" rx="24" fill="#191D1A" stroke="#354039" stroke-width="2"/><text x="76" y="602" font-size="32" font-weight="700">LIST COPY</text>
<rect x="116" y="626" width="210" height="64" rx="16" fill="#111412" stroke="#354039" stroke-width="2"/><text x="221" y="668" text-anchor="middle" font-family="Consolas, monospace" font-size="27">tasks</text><rect x="510" y="626" width="210" height="64" rx="16" fill="#111412" stroke="#354039" stroke-width="2"/><text x="615" y="668" text-anchor="middle" font-family="Consolas, monospace" font-size="27">draft</text><path d="M221 690 L221 712" fill="none" stroke="#8FE4AD" stroke-width="5" marker-end="url(#arrow)"/><path d="M615 690 L615 712" fill="none" stroke="#8FE4AD" stroke-width="5" marker-end="url(#arrow)"/>
<rect x="96" y="734" width="250" height="104" rx="18" fill="#111412" stroke="#354039" stroke-width="2"/><rect x="490" y="734" width="250" height="104" rx="18" fill="#111412" stroke="#354039" stroke-width="2"/><text x="221" y="770" text-anchor="middle" font-size="21" fill="#B8B4AA">LIST</text><text x="615" y="770" text-anchor="middle" font-size="21" fill="#B8B4AA">LIST</text><text x="221" y="816" text-anchor="middle" font-family="Consolas, monospace" font-size="24">item 0</text><text x="615" y="816" text-anchor="middle" font-family="Consolas, monospace" font-size="24">item 0</text><path d="M221 838 L298.6 872.7" fill="none" stroke="#8FE4AD" stroke-width="5" marker-end="url(#arrow)"/><path d="M615 838 L537.4 872.7" fill="none" stroke="#8FE4AD" stroke-width="5" marker-end="url(#arrow)"/>
<rect x="275" y="884" width="286" height="74" rx="16" fill="#191D1A" stroke="#354039" stroke-width="2"/><text x="418" y="914" text-anchor="middle" font-size="20" fill="#B8B4AA">SHARED RECORD · id=10</text><text x="418" y="946" text-anchor="middle" font-size="22">record shared</text><text x="418" y="990" text-anchor="middle" font-size="22" fill="#B8B4AA">new lists · shared</text></g>
<g><rect x="40" y="1060" width="756" height="468" rx="24" fill="#191D1A" stroke="#354039" stroke-width="2"/><text x="76" y="1116" font-size="32" font-weight="700">RECORD COPY</text>
<rect x="116" y="1140" width="210" height="64" rx="16" fill="#111412" stroke="#354039" stroke-width="2"/><text x="221" y="1182" text-anchor="middle" font-family="Consolas, monospace" font-size="27">tasks</text><rect x="510" y="1140" width="210" height="64" rx="16" fill="#111412" stroke="#354039" stroke-width="2"/><text x="615" y="1182" text-anchor="middle" font-family="Consolas, monospace" font-size="27">draft</text><path d="M221 1204 L221 1226" fill="none" stroke="#8FE4AD" stroke-width="5" marker-end="url(#arrow)"/><path d="M615 1204 L615 1226" fill="none" stroke="#8FE4AD" stroke-width="5" marker-end="url(#arrow)"/>
<rect x="96" y="1248" width="250" height="104" rx="18" fill="#111412" stroke="#354039" stroke-width="2"/><rect x="490" y="1248" width="250" height="104" rx="18" fill="#111412" stroke="#354039" stroke-width="2"/><text x="221" y="1284" text-anchor="middle" font-size="21" fill="#B8B4AA">LIST</text><text x="615" y="1284" text-anchor="middle" font-size="21" fill="#B8B4AA">LIST</text><text x="221" y="1330" text-anchor="middle" font-family="Consolas, monospace" font-size="24">item 0</text><text x="615" y="1330" text-anchor="middle" font-family="Consolas, monospace" font-size="24">item 0</text><path d="M221 1352 L221 1374" fill="none" stroke="#8FE4AD" stroke-width="5" marker-end="url(#arrow)"/><path d="M615 1352 L615 1374" fill="none" stroke="#8FE4AD" stroke-width="5" marker-end="url(#arrow)"/>
<rect x="96" y="1396" width="250" height="72" rx="16" fill="#191D1A" stroke="#354039" stroke-width="2"/><rect x="490" y="1396" width="250" height="72" rx="16" fill="#191D1A" stroke="#354039" stroke-width="2"/><text x="221" y="1426" text-anchor="middle" font-size="21" fill="#B8B4AA">TASK id=10</text><text x="615" y="1426" text-anchor="middle" font-size="21" fill="#B8B4AA">COPY id=10</text><text x="418" y="1498" text-anchor="middle" font-size="22" fill="#B8B4AA">independent records</text></g>
</g></svg>
